<svg width="25" height="24" viewBox="0 0 25 24" fill="none" xmlns="http://www.w3.org/2000/svg">
<path opacity="0.15" d="M6.63477 22.25C6.63477 22.4489 7.29325 22.6397 8.46535 22.7803C9.63745 22.921 11.2272 23 12.8848 23C14.5424 23 16.1321 22.921 17.3042 22.7803C18.4763 22.6397 19.1348 22.4489 19.1348 22.25C19.1348 22.0511 18.4763 21.8603 17.3042 21.7197C16.1321 21.579 14.5424 21.5 12.8848 21.5C11.2272 21.5 9.63745 21.579 8.46535 21.7197C7.29325 21.8603 6.63477 22.0511 6.63477 22.25Z" fill="#45413C"/>
<path d="M12.8849 2.61523C12.2861 2.61562 11.6898 2.69121 11.1099 2.84023C9.75487 3.14523 7.99487 3.65523 6.40487 3.34023C6.34096 3.75092 6.36165 4.17033 6.46569 4.57272C6.56973 4.97511 6.75491 5.352 7.00987 5.68023C6.17779 6.8798 5.73286 8.30533 5.73487 9.76523V13.5002H20.0349V9.76523C20.0349 7.86894 19.2816 6.05031 17.9407 4.70942C16.5998 3.36854 14.7812 2.61523 12.8849 2.61523Z" fill="#A86C4D"/>
<path d="M12.8847 2.61523C12.286 2.61562 11.6897 2.69121 11.1097 2.84023C9.75475 3.14523 7.99475 3.65523 6.40475 3.34023C6.33344 3.92796 6.41614 4.52412 6.64475 5.07023C8.16975 5.28523 9.82475 4.81023 11.1097 4.52023C12.1665 4.24839 13.2716 4.2222 14.34 4.44369C15.4085 4.66518 16.4121 5.12846 17.2737 5.79799C18.1354 6.46752 18.8322 7.32552 19.3108 8.30616C19.7894 9.2868 20.0371 10.364 20.0347 11.4552V9.76523C20.0347 7.86894 19.2814 6.05031 17.9406 4.70942C16.5997 3.36854 14.781 2.61523 12.8847 2.61523Z" fill="#DE926A"/>
<path d="M12.8849 2.61523C12.2861 2.61562 11.6898 2.69121 11.1099 2.84023C9.75487 3.14523 7.99487 3.65523 6.40487 3.34023C6.34096 3.75092 6.36165 4.17033 6.46569 4.57272C6.56973 4.97511 6.75491 5.352 7.00987 5.68023C6.17779 6.8798 5.73286 8.30533 5.73487 9.76523V13.5002H20.0349V9.76523C20.0349 7.86894 19.2816 6.05031 17.9407 4.70942C16.5998 3.36854 14.7812 2.61523 12.8849 2.61523Z" stroke="#45413C" stroke-width="0.5" stroke-linecap="round" stroke-linejoin="round"/>
<path d="M20.7946 12.9598C20.759 12.694 20.6449 12.4448 20.4667 12.2444C20.2885 12.0439 20.0544 11.9013 19.7946 11.8348L19.3646 11.7198C19.0511 11.6308 18.7752 11.4421 18.5786 11.1823C18.3819 10.9225 18.2752 10.6057 18.2746 10.2798V8.77984C18.2751 8.48193 18.1774 8.19214 17.9966 7.95533C17.8158 7.71853 17.5621 7.5479 17.2746 7.46984C15.8783 8.02184 14.3856 8.28875 12.8846 8.25484C11.3949 8.28249 9.91459 8.01396 8.52956 7.46484C8.24162 7.54213 7.98737 7.71256 7.80647 7.94954C7.62557 8.18652 7.5282 8.47671 7.52956 8.77484V10.5898C7.52826 10.8976 7.40578 11.1924 7.18866 11.4104C6.97155 11.6285 6.67726 11.7522 6.36956 11.7548C6.04849 11.7486 5.73542 11.8553 5.48501 12.0563C5.23461 12.2574 5.06279 12.54 4.99956 12.8548C4.96833 13.044 4.97869 13.2378 5.02993 13.4226C5.08117 13.6073 5.17205 13.7787 5.29625 13.9248C5.42046 14.0709 5.575 14.1882 5.74914 14.2685C5.92327 14.3488 6.1128 14.3902 6.30456 14.3898H6.38456C6.6144 15.9536 7.39901 17.3825 8.59512 18.4156C9.79123 19.4488 11.319 20.0172 12.8996 20.0172C14.4801 20.0172 16.0079 19.4488 17.204 18.4156C18.4001 17.3825 19.1847 15.9536 19.4146 14.3898H19.4946C19.6761 14.3885 19.8554 14.3495 20.0211 14.2754C20.1869 14.2014 20.3355 14.0938 20.4576 13.9594C20.5797 13.8251 20.6727 13.6669 20.7307 13.4949C20.7887 13.3229 20.8104 13.1407 20.7946 12.9598Z" fill="#FFCEBF" stroke="#45413C" stroke-width="0.5" stroke-linecap="round" stroke-linejoin="round"/>
<path d="M8.92971 12.8051C8.92872 12.9173 8.96114 13.0272 9.02284 13.1209C9.08454 13.2146 9.17273 13.2878 9.27617 13.3312C9.37962 13.3745 9.49363 13.3861 9.60369 13.3645C9.71376 13.3429 9.81489 13.2889 9.8942 13.2096C9.97352 13.1303 10.0274 13.0292 10.0491 12.9191C10.0707 12.8091 10.0591 12.695 10.0157 12.5916C9.97234 12.4882 9.89915 12.4 9.80547 12.3383C9.7118 12.2766 9.60188 12.2442 9.48971 12.2451C9.41617 12.2451 9.34335 12.2596 9.27541 12.2878C9.20746 12.3159 9.14573 12.3572 9.09373 12.4092C9.04173 12.4612 9.00048 12.5229 8.97234 12.5908C8.94419 12.6588 8.92971 12.7316 8.92971 12.8051ZM16.8397 12.8051C16.8407 12.9173 16.8083 13.0272 16.7466 13.1209C16.6849 13.2146 16.5967 13.2878 16.4932 13.3312C16.3898 13.3745 16.2758 13.3861 16.1657 13.3645C16.0557 13.3429 15.9545 13.2889 15.8752 13.2096C15.7959 13.1303 15.742 13.0292 15.7203 12.9191C15.6987 12.8091 15.7103 12.695 15.7537 12.5916C15.7971 12.4882 15.8703 12.4 15.9639 12.3383C16.0576 12.2766 16.1675 12.2442 16.2797 12.2451C16.4282 12.2451 16.5707 12.3041 16.6757 12.4092C16.7807 12.5142 16.8397 12.6566 16.8397 12.8051Z" fill="#45413C" stroke="#45413C" stroke-width="0.5" stroke-linecap="round" stroke-linejoin="round"/>
<path d="M10.8199 16.2251C10.7736 16.2252 10.7279 16.2351 10.6857 16.254C10.6435 16.273 10.6057 16.3006 10.5749 16.3351C10.5453 16.3709 10.5237 16.4127 10.5117 16.4575C10.4996 16.5024 10.4973 16.5493 10.5049 16.5951C10.6015 17.1563 10.8933 17.6653 11.3288 18.0323C11.7642 18.3992 12.3154 18.6004 12.8849 18.6004C13.4543 18.6004 14.0055 18.3992 14.441 18.0323C14.8764 17.6653 15.1683 17.1563 15.2649 16.5951C15.2724 16.5493 15.2701 16.5024 15.258 16.4575C15.246 16.4127 15.2244 16.3709 15.1949 16.3351C15.164 16.3006 15.1263 16.273 15.0841 16.254C15.0418 16.2351 14.9961 16.2252 14.9499 16.2251H10.8199Z" fill="#FF6242"/>
<path d="M12.8848 17.2151C12.2279 17.1928 11.5823 17.3899 11.0498 17.7751C11.2784 18.0371 11.5604 18.2471 11.8769 18.3911C12.1934 18.535 12.5371 18.6094 12.8848 18.6094C13.2325 18.6094 13.5762 18.535 13.8927 18.3911C14.2092 18.2471 14.4912 18.0371 14.7198 17.7751C14.1873 17.3899 13.5417 17.1928 12.8848 17.2151Z" fill="#FFA694"/>
<path d="M10.8199 16.2251C10.7736 16.2252 10.7279 16.2351 10.6857 16.254C10.6435 16.273 10.6057 16.3006 10.5749 16.3351C10.5453 16.3709 10.5237 16.4127 10.5117 16.4575C10.4996 16.5024 10.4973 16.5493 10.5049 16.5951C10.6015 17.1563 10.8933 17.6653 11.3288 18.0323C11.7642 18.3992 12.3154 18.6004 12.8849 18.6004C13.4543 18.6004 14.0055 18.3992 14.441 18.0323C14.8764 17.6653 15.1683 17.1563 15.2649 16.5951C15.2724 16.5493 15.2701 16.5024 15.258 16.4575C15.246 16.4127 15.2244 16.3709 15.1949 16.3351C15.164 16.3006 15.1263 16.273 15.0841 16.254C15.0418 16.2351 14.9961 16.2252 14.9499 16.2251H10.8199Z" stroke="#45413C" stroke-width="0.5" stroke-linecap="round" stroke-linejoin="round"/>
<path d="M7.82959 15.1948C7.82959 15.3101 7.9065 15.4208 8.0434 15.5024C8.1803 15.5839 8.36598 15.6298 8.55959 15.6298C8.7532 15.6298 8.93888 15.5839 9.07578 15.5024C9.21268 15.4208 9.28959 15.3101 9.28959 15.1948C9.28959 15.0794 9.21268 14.9688 9.07578 14.8872C8.93888 14.8056 8.7532 14.7598 8.55959 14.7598C8.36598 14.7598 8.1803 14.8056 8.0434 14.8872C7.9065 14.9688 7.82959 15.0794 7.82959 15.1948ZM16.4796 15.1948C16.4796 15.3101 16.5565 15.4208 16.6934 15.5024C16.8303 15.5839 17.016 15.6298 17.2096 15.6298C17.4032 15.6298 17.5889 15.5839 17.7258 15.5024C17.8627 15.4208 17.9396 15.3101 17.9396 15.1948C17.9396 15.0794 17.8627 14.9688 17.7258 14.8872C17.5889 14.8056 17.4032 14.7598 17.2096 14.7598C17.016 14.7598 16.8303 14.8056 16.6934 14.8872C16.5565 14.9688 16.4796 15.0794 16.4796 15.1948Z" fill="#FFB59E"/>
</svg>
