<svg width="25" height="25" viewBox="0 0 25 25" fill="none" xmlns="http://www.w3.org/2000/svg">
<path opacity="0.15" d="M6.13477 22.75C6.13477 22.9489 6.79325 23.1397 7.96535 23.2803C9.13745 23.421 10.7272 23.5 12.3848 23.5C14.0424 23.5 15.6321 23.421 16.8042 23.2803C17.9763 23.1397 18.6348 22.9489 18.6348 22.75C18.6348 22.5511 17.9763 22.3603 16.8042 22.2197C15.6321 22.079 14.0424 22 12.3848 22C10.7272 22 9.13745 22.079 7.96535 22.2197C6.79325 22.3603 6.13477 22.5511 6.13477 22.75Z" fill="#45413C"/>
<path d="M12.3845 1.25C14.5274 1.25 16.5826 2.10128 18.0979 3.61658C19.6132 5.13187 20.4645 7.18705 20.4645 9.33V19.87C20.4645 20.053 20.4092 20.2317 20.3056 20.3825C20.2021 20.5334 20.0552 20.6493 19.8845 20.715C15.0708 22.6454 9.69814 22.6454 4.88446 20.715C4.71557 20.6477 4.57086 20.5311 4.46919 20.3804C4.36752 20.2297 4.3136 20.0518 4.31446 19.87V9.33C4.31446 7.18878 5.16437 5.13512 6.6775 3.62011C8.19064 2.1051 10.2432 1.25265 12.3845 1.25Z" fill="#A86C4D"/>
<path d="M12.3847 1.25C10.2417 1.25 8.18656 2.10128 6.67126 3.61658C5.15597 5.13187 4.30469 7.18705 4.30469 9.33V11.565C4.30469 9.42205 5.15597 7.36687 6.67126 5.85158C8.18656 4.33628 10.2417 3.485 12.3847 3.485C14.5276 3.485 16.5828 4.33628 18.0981 5.85158C19.6134 7.36687 20.4647 9.42205 20.4647 11.565V9.33C20.4647 7.18705 19.6134 5.13187 18.0981 3.61658C16.5828 2.10128 14.5276 1.25 12.3847 1.25Z" fill="#DE926A"/>
<path d="M12.3845 1.25C14.5274 1.25 16.5826 2.10128 18.0979 3.61658C19.6132 5.13187 20.4645 7.18705 20.4645 9.33V19.87C20.4645 20.053 20.4092 20.2317 20.3056 20.3825C20.2021 20.5334 20.0552 20.6493 19.8845 20.715C15.0708 22.6454 9.69814 22.6454 4.88446 20.715C4.71557 20.6477 4.57086 20.5311 4.46919 20.3804C4.36752 20.2297 4.3136 20.0518 4.31446 19.87V9.33C4.31446 7.18878 5.16437 5.13512 6.6775 3.62011C8.19064 2.1051 10.2432 1.25265 12.3845 1.25Z" stroke="#45413C" stroke-width="0.5" stroke-linecap="round" stroke-linejoin="round"/>
<path d="M19.1202 11.0002C18.1808 10.7383 17.3124 10.2684 16.5793 9.62532C15.8462 8.98223 15.2672 8.18243 14.8852 7.28518L14.4202 6.18018C12.6318 8.59515 9.98816 10.2354 7.03018 10.7652L5.63018 11.0202C5.28699 11.0411 4.96472 11.1922 4.7291 11.4426C4.49349 11.693 4.3623 12.0238 4.3623 12.3677C4.3623 12.7115 4.49349 13.0424 4.7291 13.2928C4.96472 13.5432 5.28699 13.6943 5.63018 13.7152H5.71518C5.95497 15.3072 6.75797 16.7605 7.97826 17.8107C9.19856 18.861 10.7552 19.4386 12.3652 19.4386C13.9752 19.4386 15.5318 18.861 16.7521 17.8107C17.9724 16.7605 18.7754 15.3072 19.0152 13.7152H19.1002C19.4434 13.6943 19.7657 13.5432 20.0013 13.2928C20.2369 13.0424 20.3681 12.7115 20.3681 12.3677C20.3681 12.0238 20.2369 11.693 20.0013 11.4426C19.7657 11.1922 19.4434 11.0411 19.1002 11.0202L19.1202 11.0002Z" fill="#FFCEBF" stroke="#45413C" stroke-width="0.5" stroke-linecap="round" stroke-linejoin="round"/>
<path d="M8.34996 12.09C8.35292 12.2033 8.38927 12.3131 8.45444 12.4058C8.51961 12.4985 8.61071 12.5698 8.71629 12.6109C8.82187 12.652 8.93723 12.6609 9.04789 12.6367C9.15856 12.6124 9.25958 12.556 9.3383 12.4745C9.41701 12.393 9.46991 12.2901 9.49034 12.1787C9.51077 12.0673 9.49783 11.9523 9.45314 11.8482C9.40845 11.7441 9.334 11.6555 9.23914 11.5936C9.14429 11.5316 9.03325 11.4991 8.91996 11.5C8.84339 11.5 8.7676 11.5154 8.69711 11.5452C8.62662 11.5751 8.56287 11.6189 8.50967 11.674C8.45647 11.729 8.41491 11.7943 8.38747 11.8657C8.36003 11.9372 8.34727 12.0135 8.34996 12.09ZM16.42 12.09C16.417 12.2033 16.3807 12.3131 16.3155 12.4058C16.2503 12.4985 16.1592 12.5698 16.0536 12.6109C15.948 12.652 15.8327 12.6609 15.722 12.6367C15.6114 12.6124 15.5103 12.556 15.4316 12.4745C15.3529 12.393 15.3 12.2901 15.2796 12.1787C15.2592 12.0673 15.2721 11.9523 15.3168 11.8482C15.3615 11.7441 15.4359 11.6555 15.5308 11.5936C15.6256 11.5316 15.7367 11.4991 15.85 11.5C15.9265 11.5 16.0023 11.5154 16.0728 11.5452C16.1433 11.5751 16.2071 11.6189 16.2603 11.674C16.3134 11.729 16.355 11.7943 16.3824 11.8657C16.4099 11.9372 16.4226 12.0135 16.42 12.09Z" fill="#45413C" stroke="#45413C" stroke-width="0.5" stroke-linecap="round" stroke-linejoin="round"/>
<path d="M10.5395 15.7349C10.4978 15.7344 10.4564 15.7431 10.4184 15.7604C10.3804 15.7777 10.3466 15.8031 10.3195 15.8349C10.2918 15.8657 10.2714 15.9024 10.2602 15.9423C10.2489 15.9822 10.247 16.0241 10.2545 16.0649C10.3393 16.5685 10.5998 17.0257 10.9898 17.3555C11.3797 17.6852 11.8738 17.8661 12.3845 17.8661C12.8952 17.8661 13.3893 17.6852 13.7793 17.3555C14.1692 17.0257 14.4297 16.5685 14.5145 16.0649C14.5221 16.0241 14.5201 15.9822 14.5088 15.9423C14.4976 15.9024 14.4773 15.8657 14.4495 15.8349C14.4224 15.8031 14.3887 15.7777 14.3506 15.7604C14.3126 15.7431 14.2713 15.7344 14.2295 15.7349H10.5395Z" fill="#FF6242"/>
<path d="M12.3852 16.6199C11.7969 16.6018 11.2189 16.7775 10.7402 17.1199C10.9449 17.3552 11.1976 17.5439 11.4814 17.6732C11.7652 17.8025 12.0734 17.8694 12.3852 17.8694C12.6971 17.8694 13.0053 17.8025 13.2891 17.6732C13.5729 17.5439 13.8256 17.3552 14.0302 17.1199C13.5515 16.7775 12.9736 16.6018 12.3852 16.6199Z" fill="#FFA694"/>
<path d="M10.5395 15.7349C10.4978 15.7344 10.4564 15.7431 10.4184 15.7604C10.3804 15.7777 10.3466 15.8031 10.3195 15.8349C10.2918 15.8657 10.2714 15.9024 10.2602 15.9423C10.2489 15.9822 10.247 16.0241 10.2545 16.0649C10.3393 16.5685 10.5998 17.0257 10.9898 17.3555C11.3797 17.6852 11.8738 17.8661 12.3845 17.8661C12.8952 17.8661 13.3893 17.6852 13.7793 17.3555C14.1692 17.0257 14.4297 16.5685 14.5145 16.0649C14.5221 16.0241 14.5201 15.9822 14.5088 15.9423C14.4976 15.9024 14.4773 15.8657 14.4495 15.8349C14.4224 15.8031 14.3887 15.7777 14.3506 15.7604C14.3126 15.7431 14.2713 15.7344 14.2295 15.7349H10.5395Z" stroke="#45413C" stroke-width="0.5" stroke-linecap="round" stroke-linejoin="round"/>
<path d="M7.22949 14.53C7.22949 14.648 7.30798 14.7612 7.4477 14.8446C7.58741 14.9281 7.77691 14.975 7.97449 14.975C8.17208 14.975 8.36157 14.9281 8.50129 14.8446C8.641 14.7612 8.71949 14.648 8.71949 14.53C8.71949 14.4119 8.641 14.2988 8.50129 14.2153C8.36157 14.1318 8.17208 14.085 7.97449 14.085C7.77691 14.085 7.58741 14.1318 7.4477 14.2153C7.30798 14.2988 7.22949 14.4119 7.22949 14.53ZM16.0495 14.53C16.0495 14.5884 16.0688 14.6463 16.1062 14.7003C16.1436 14.7542 16.1985 14.8033 16.2677 14.8446C16.3369 14.8859 16.419 14.9187 16.5094 14.9411C16.5998 14.9635 16.6967 14.975 16.7945 14.975C16.8923 14.975 16.9892 14.9635 17.0796 14.9411C17.17 14.9187 17.2521 14.8859 17.3213 14.8446C17.3905 14.8033 17.4453 14.7542 17.4828 14.7003C17.5202 14.6463 17.5395 14.5884 17.5395 14.53C17.5395 14.4119 17.461 14.2988 17.3213 14.2153C17.1816 14.1318 16.9921 14.085 16.7945 14.085C16.5969 14.085 16.4074 14.1318 16.2677 14.2153C16.128 14.2988 16.0495 14.4119 16.0495 14.53Z" fill="#FFB59E"/>
</svg>
