<svg width="24" height="25" viewBox="0 0 24 25" fill="none" xmlns="http://www.w3.org/2000/svg">
<path d="M12.6099 2.78708C12.4407 2.64005 12.2241 2.55908 11.9999 2.55908C11.7758 2.55908 11.5592 2.64005 11.3899 2.78708C10.6295 3.44503 10.0154 4.25496 9.58706 5.1647C9.15871 6.07444 8.92567 7.06381 8.90295 8.06908C8.90276 8.16241 8.9287 8.25393 8.97783 8.33328C9.02696 8.41263 9.09732 8.47665 9.18095 8.51808C9.78941 8.83408 10.3598 9.21858 10.8809 9.66408C11.1383 9.88408 11.3729 10.1111 11.5849 10.3451C11.8049 10.5871 12.1949 10.5871 12.4149 10.3451C12.6276 10.1111 12.8623 9.88442 13.1189 9.66508C13.6401 9.21958 14.2105 8.83508 14.8189 8.51908C14.9028 8.47779 14.9733 8.41383 15.0226 8.33447C15.0719 8.25511 15.098 8.16352 15.0979 8.07009C15.0754 7.06464 14.8424 6.07507 14.414 5.16515C13.9857 4.25524 13.3715 3.44515 12.6109 2.78708M11.9999 18.5431C12.8025 17.1296 14.0089 15.988 15.4645 15.2646C16.9202 14.5413 18.5586 14.2691 20.1699 14.4831C20.6579 14.5471 21.0229 14.9831 20.9849 15.4871C20.8381 17.3953 19.9762 19.1778 18.5718 20.4781C17.1674 21.7783 15.3239 22.5004 13.4099 22.5001H10.5899C8.67621 22.5002 6.83296 21.7779 5.42874 20.4777C4.02452 19.1775 3.16283 17.3952 3.01595 15.4871C2.99752 15.2472 3.07176 15.0094 3.22337 14.8227C3.37498 14.6359 3.59243 14.5144 3.83095 14.4831C5.44225 14.2691 7.08073 14.5413 8.53635 15.2646C9.99196 15.988 11.1984 17.1296 12.0009 18.5431M19.6469 13.4301C17.7999 13.3281 15.9929 13.8101 14.5209 14.5951C13.6389 15.0651 12.8309 15.6701 12.1989 16.3661C12.1737 16.3933 12.143 16.4151 12.109 16.43C12.0749 16.4448 12.0381 16.4525 12.0009 16.4525C11.9638 16.4525 11.927 16.4448 11.8929 16.43C11.8589 16.4151 11.8282 16.3933 11.8029 16.3661C11.1729 15.6691 10.3639 15.0651 9.48195 14.5951C8.01295 13.8121 6.21195 13.3311 4.36995 13.4301C3.63995 12.2801 3.13995 10.9601 3.01995 9.63008C3.00897 9.5044 3.02287 9.37777 3.06086 9.25746C3.09886 9.13715 3.16019 9.0255 3.24137 8.92892C3.32254 8.83233 3.42196 8.75268 3.53393 8.69454C3.6459 8.63641 3.76824 8.60091 3.89395 8.59009C6.34895 8.38509 8.39795 8.87008 10.2359 10.4271C11.0659 11.1301 11.6219 11.9741 12.0019 12.6941C12.3809 11.9741 12.9379 11.1301 13.7669 10.4271C15.6069 8.86908 17.6699 8.38509 20.1229 8.59009C20.2487 8.60079 20.3712 8.63619 20.4833 8.69428C20.5954 8.75236 20.6949 8.83198 20.7762 8.92859C20.8574 9.02519 20.9189 9.13687 20.9569 9.25725C20.995 9.37762 21.0089 9.50432 20.9979 9.63008C20.8769 10.9601 20.3769 12.2811 19.6479 13.4301" fill="white"/>
</svg>
