<svg width="32" height="32" viewBox="0 0 32 32" fill="none" xmlns="http://www.w3.org/2000/svg">
<path d="M4 9C4 7.67392 4.52678 6.40215 5.46447 5.46447C6.40215 4.52678 7.67392 4 9 4H23C24.3261 4 25.5979 4.52678 26.5355 5.46447C27.4732 6.40215 28 7.67392 28 9V16H21C19.6739 16 18.4021 16.5268 17.4645 17.4645C16.5268 18.4021 16 19.6739 16 21V28H9C7.67392 28 6.40215 27.4732 5.46447 26.5355C4.52678 25.5979 4 24.3261 4 23V9ZM18 27.718C18.7073 27.4699 19.3499 27.0659 19.88 26.536L26.536 19.878C27.065 19.3482 27.4682 18.7064 27.716 18H21C20.2044 18 19.4413 18.3161 18.8787 18.8787C18.3161 19.4413 18 20.2044 18 21V27.718Z" fill="white"/>
</svg>
