<svg width="25" height="25" viewBox="0 0 25 25" fill="none" xmlns="http://www.w3.org/2000/svg">
<path d="M14.5 7.5C15.8807 7.5 17 6.38071 17 5C17 3.61929 15.8807 2.5 14.5 2.5C13.1193 2.5 12 3.61929 12 5C12 6.38071 13.1193 7.5 14.5 7.5Z" fill="white"/>
<path d="M15.0001 14.1499L10.4001 12.1C9.90007 11.85 9.65007 12.6 9.40007 13.1C9.15007 13.6 7.35008 16.6999 7.50008 17.2499C7.65008 17.6999 8.05007 17.95 8.45007 17.95C8.55007 17.95 8.65007 17.9499 8.75007 17.8999L14.9001 15.9999C15.3001 15.9 15.6001 15.5 15.6001 15.1C15.6001 14.7 15.3501 14.2999 15.0001 14.1499Z" fill="white"/>
<path d="M13.9 8.10015L12.8 7.60015C12.15 7.30015 11.35 7.60015 11.05 8.25015L5.10003 21.0501C4.85003 21.5501 5.10003 22.1501 5.60003 22.4001C5.75003 22.4501 5.90003 22.5001 6.05003 22.5001C6.45003 22.5001 6.80003 22.3001 6.95003 21.9501C6.95003 21.9501 11.75 15.3001 12.15 14.5001C12.55 13.7001 14.6 9.85015 14.6 9.85015C14.85 9.20015 14.6 8.40015 13.9 8.10015Z" fill="white"/>
<path d="M20.75 8.35C20.4 7.95 19.75 7.85 19.35 8.2L16.85 10.3L13.65 8.55C13.1 8.25 12.35 8.35 12 9C11.6 9.65 11.8 10.45 12.4 10.7L16.55 12.4C16.7 12.45 16.85 12.5 17 12.5C17.25 12.5 17.45 12.4 17.65 12.25L20.65 9.75C21.05 9.4 21.1 8.8 20.75 8.35ZM6.35 12.05L8.05 9.5L10.35 9.8L11.1 8.25C11.3 7.8 11.7 7.55 12.15 7.5H7.55C7.2 7.5 6.9 7.65 6.7 7.95L4.7 10.95C4.4 11.4 4.5 12.05 5 12.35C5.1 12.45 5.3 12.5 5.5 12.5C5.8 12.5 6.15 12.35 6.35 12.05Z" fill="white"/>
</svg>
